<svg width="162" height="32" viewBox="0 0 162 32" fill="none" xmlns="http://www.w3.org/2000/svg">
<path d="M7.16 17.96H13.58V23H0.5V1.76H7.16V17.96ZM29.2958 19.79H22.2158L21.1658 23H14.1758L21.9458 1.76H29.6258L37.3658 23H30.3458L29.2958 19.79ZM27.6758 14.78L25.7558 8.87L23.8358 14.78H27.6758Z" fill="#01CFC9"/>
<path d="M47.7289 1.76C49.9489 1.76 51.8889 2.21 53.5489 3.11C55.2289 4.01 56.5189 5.26 57.4189 6.86C58.3189 8.46 58.7689 10.28 58.7689 12.32C58.7689 14.34 58.3189 16.16 57.4189 17.78C56.5189 19.4 55.2289 20.68 53.5489 21.62C51.8889 22.54 49.9489 23 47.7289 23H38.8789V1.76H47.7289ZM47.1289 17.06C48.6289 17.06 49.8189 16.65 50.6989 15.83C51.5789 15.01 52.0189 13.84 52.0189 12.32C52.0189 10.8 51.5789 9.63 50.6989 8.81C49.8189 7.99 48.6289 7.58 47.1289 7.58H45.5389V17.06H47.1289ZM67.8338 7.07V9.68H74.4338V14.69H67.8338V17.69H75.3338V23H61.1738V1.76H75.3338V7.07H67.8338ZM98.2138 23H91.5538L84.5038 12.32V23H77.8438V1.76H84.5038L91.5538 12.62V1.76H98.2138V23ZM117.903 1.76V7.04H112.263V23H105.603V7.04H100.023V1.76H117.903ZM128.107 23.24C126.947 23.24 126.017 22.93 125.317 22.31C124.617 21.69 124.267 20.91 124.267 19.97C124.267 19.01 124.617 18.22 125.317 17.6C126.017 16.96 126.947 16.64 128.107 16.64C129.247 16.64 130.167 16.96 130.867 17.6C131.567 18.22 131.917 19.01 131.917 19.97C131.917 20.91 131.567 21.69 130.867 22.31C130.167 22.93 129.247 23.24 128.107 23.24ZM141.047 8.39C141.467 7.61 142.067 7 142.847 6.56C143.647 6.1 144.597 5.87 145.697 5.87C147.017 5.87 148.207 6.22 149.267 6.92C150.327 7.6 151.157 8.6 151.757 9.92C152.377 11.22 152.687 12.76 152.687 14.54C152.687 16.32 152.377 17.87 151.757 19.19C151.157 20.49 150.327 21.49 149.267 22.19C148.207 22.87 147.017 23.21 145.697 23.21C144.597 23.21 143.647 22.99 142.847 22.55C142.067 22.09 141.467 21.47 141.047 20.69V31.1H134.387V6.08H141.047V8.39ZM145.937 14.54C145.937 13.64 145.707 12.94 145.247 12.44C144.787 11.94 144.197 11.69 143.477 11.69C142.757 11.69 142.167 11.94 141.707 12.44C141.247 12.94 141.017 13.64 141.017 14.54C141.017 15.44 141.247 16.14 141.707 16.64C142.167 17.14 142.757 17.39 143.477 17.39C144.197 17.39 144.787 17.14 145.247 16.64C145.707 16.14 145.937 15.44 145.937 14.54ZM161.437 0.8V23H154.777V0.8H161.437Z" fill="#0F2650"/>
</svg>
