<svg width="89" height="89" viewBox="0 0 89 89" fill="none" xmlns="http://www.w3.org/2000/svg">
<g id="Group 26">
<rect id="Rectangle 101" width="89" height="89" rx="12" fill="#B7ECEA"/>
<g id="Group">
<g id="&#240;&#159;&#166;&#134; icon &#34;terms of delivery&#34;">
<path id="Vector" d="M17.2114 27.7104H72.7947V60.3002H17.2114V27.7104Z" fill="white"/>
<path id="Vector_2" d="M17.2114 27.7104H72.7947V33.3291H17.2114V27.7104Z" fill="#FFEB97"/>
<path id="Vector_3" d="M24.4872 30.5179C24.4872 30.6569 24.4169 30.7927 24.2852 30.9083C24.1535 31.0239 23.9662 31.114 23.7472 31.1672C23.5282 31.2204 23.2872 31.2343 23.0547 31.2072C22.8221 31.1801 22.6086 31.1131 22.4409 31.0148C22.2733 30.9165 22.1591 30.7913 22.1129 30.655C22.0666 30.5186 22.0904 30.3773 22.1811 30.2489C22.2718 30.1205 22.4254 30.0107 22.6226 29.9335C22.8197 29.8563 23.0514 29.8151 23.2885 29.8151C23.6064 29.8151 23.9113 29.8891 24.1361 30.0209C24.3609 30.1527 24.4872 30.3315 24.4872 30.5179Z" fill="#0F2650"/>
<path id="Vector_4" d="M29.2819 30.5179C29.2819 30.6569 29.2116 30.7927 29.0798 30.9083C28.9481 31.0239 28.7609 31.114 28.5419 31.1672C28.3229 31.2204 28.0819 31.2343 27.8493 31.2072C27.6168 31.1801 27.4032 31.1131 27.2356 31.0148C27.068 30.9165 26.9538 30.7913 26.9076 30.655C26.8613 30.5186 26.885 30.3773 26.9758 30.2489C27.0665 30.1205 27.2201 30.0107 27.4172 29.9335C27.6144 29.8563 27.8461 29.8151 28.0832 29.8151C28.4011 29.8151 28.706 29.8891 28.9308 30.0209C29.1556 30.1527 29.2819 30.3315 29.2819 30.5179Z" fill="#0F2650"/>
<path id="Vector_5" d="M34.0443 30.5179C34.0443 30.6569 33.974 30.7927 33.8423 30.9083C33.7106 31.0239 33.5234 31.114 33.3043 31.1672C33.0853 31.2204 32.8443 31.2343 32.6118 31.2072C32.3793 31.1801 32.1657 31.1131 31.9981 31.0148C31.8304 30.9165 31.7163 30.7913 31.67 30.655C31.6238 30.5186 31.6475 30.3773 31.7382 30.2489C31.8289 30.1205 31.9826 30.0107 32.1797 29.9335C32.3768 29.8563 32.6086 29.8151 32.8456 29.8151C33.1635 29.8151 33.4684 29.8891 33.6932 30.0209C33.918 30.1527 34.0443 30.3315 34.0443 30.5179Z" fill="#0F2650"/>
<path id="Vector_6" d="M41.9775 52.8602H57.6891V56.4045H41.9775V52.8602Z" fill="#FF8898"/>
<path id="Vector_7" d="M27.7609 56.7522C29.7612 56.7522 31.3827 55.8014 31.3827 54.6287C31.3827 53.4559 29.7612 52.5051 27.7609 52.5051C25.7607 52.5051 24.1392 53.4559 24.1392 54.6287C24.1392 55.8014 25.7607 56.7522 27.7609 56.7522Z" fill="#01CFC9"/>
<path id="Vector_8" d="M64.6555 39.9302H67.0722V49.3765H64.6555V39.9302Z" fill="#B7ECEA"/>
<path id="Vector_9" d="M65.8606 42.2917C65.541 42.2917 65.2345 42.2173 65.0085 42.0848C64.7825 41.9523 64.6555 41.7725 64.6555 41.5851V38.5132C64.6778 38.3342 64.8148 38.1669 65.039 38.0447C65.2631 37.9225 65.5578 37.8546 65.8639 37.8546C66.1699 37.8546 66.4646 37.9225 66.6887 38.0447C66.9129 38.1669 67.0499 38.3342 67.0722 38.5132V41.5814C67.073 41.6748 67.0423 41.7674 66.9817 41.8538C66.9211 41.9402 66.8319 42.0187 66.7192 42.0848C66.6066 42.1508 66.4727 42.2031 66.3253 42.2387C66.1779 42.2742 66.02 42.2922 65.8606 42.2917Z" fill="#0F2650"/>
<path id="Vector_10" d="M57.6889 57.1111H41.9773C41.8191 57.1111 41.6624 57.0928 41.5162 57.0573C41.3699 57.0218 41.2371 56.9698 41.1252 56.9042C41.0133 56.8385 40.9245 56.7607 40.864 56.6749C40.8034 56.5892 40.7722 56.4973 40.7722 56.4045V52.8603C40.7722 52.7672 40.8036 52.675 40.8646 52.589C40.9255 52.503 41.0149 52.425 41.1275 52.3593C41.2401 52.2936 41.3737 52.2417 41.5206 52.2064C41.6676 52.1711 41.825 52.1532 41.9838 52.1537H57.6889C57.8482 52.1532 58.0061 52.1712 58.1535 52.2067C58.3009 52.2423 58.4348 52.2946 58.5475 52.3606C58.6602 52.4267 58.7494 52.5052 58.8099 52.5916C58.8705 52.678 58.9013 52.7706 58.9004 52.8641V56.4083C58.8996 56.5011 58.8676 56.5929 58.8062 56.6784C58.7449 56.764 58.6554 56.8416 58.5429 56.9068C58.4304 56.9721 58.2971 57.0237 58.1505 57.0588C58.004 57.0938 57.8471 57.1116 57.6889 57.1111ZM43.1889 55.6942H56.4773V53.5669H43.1889V55.6942Z" fill="#0F2650"/>
<path id="Vector_11" d="M27.5999 56.4725L24.8288 54.8478C24.5981 54.714 24.4674 54.5319 24.4656 54.3417C24.4638 54.1514 24.591 53.9685 24.8191 53.8332C25.0473 53.6979 25.3578 53.6213 25.6823 53.6203C26.0068 53.6192 26.3187 53.6938 26.5495 53.8276L27.5999 54.4586L30.5901 52.694C30.8209 52.5607 31.1325 52.4866 31.4563 52.4881C31.7802 52.4895 32.0899 52.5663 32.3172 52.7016C32.5446 52.8368 32.6709 53.0195 32.6685 53.2094C32.6661 53.3994 32.5351 53.5809 32.3043 53.7142L27.5999 56.4725Z" fill="#0F2650"/>
</g>
<path id="Vector_12" d="M72.7949 61.0067H17.2116C17.0528 61.0072 16.8954 60.9893 16.7484 60.954C16.6015 60.9187 16.4678 60.8667 16.3553 60.8011C16.2427 60.7354 16.1533 60.6573 16.0924 60.5714C16.0314 60.4854 16 60.3932 16 60.3001V27.7104C15.9992 27.6169 16.0299 27.5243 16.0905 27.4379C16.1511 27.3515 16.2403 27.273 16.353 27.207C16.4656 27.1409 16.5995 27.0886 16.7469 27.0531C16.8943 27.0175 17.0522 26.9995 17.2116 27H72.7949C72.9537 27 73.1109 27.0184 73.2575 27.0542C73.4042 27.0899 73.5373 27.1423 73.6493 27.2083C73.7613 27.2743 73.8499 27.3527 73.9101 27.4388C73.9703 27.525 74.0008 27.6173 74 27.7104V60.3001C74 60.4875 73.873 60.6672 73.647 60.7997C73.421 60.9322 73.1145 61.0067 72.7949 61.0067ZM18.4167 59.5897H71.5833V28.417H18.4167V59.5897Z" fill="#0F2650"/>
<path id="Vector_13" d="M71.8345 34.0355H18.1652C17.86 34.0225 17.5745 33.9421 17.3662 33.8107C17.1578 33.6793 17.042 33.5065 17.042 33.3271C17.042 33.1476 17.1578 32.9748 17.3662 32.8434C17.5745 32.712 17.86 32.6317 18.1652 32.6186H71.8345C72.0006 32.6115 72.1675 32.6245 72.3246 32.6569C72.4817 32.6893 72.6258 32.7403 72.7477 32.8068C72.8697 32.8733 72.967 32.9538 73.0335 33.0433C73.1001 33.1328 73.1344 33.2294 73.1344 33.3271C73.1344 33.4247 73.1001 33.5213 73.0335 33.6108C72.967 33.7003 72.8697 33.7809 72.7477 33.8473C72.6258 33.9138 72.4817 33.9649 72.3246 33.9972C72.1675 34.0296 72.0006 34.0426 71.8345 34.0355Z" fill="#0F2650"/>
<path id="Vector_14" d="M38.9358 29.7242H69.2569V31.1412H38.9358V29.7242Z" fill="#0F2650"/>
<path id="Vector_15" d="M24.1394 37.8027H58.5334V39.2197H24.1394V37.8027Z" fill="#0F2650"/>
<path id="Vector_16" d="M24.1394 41.109H58.5334V42.526H24.1394V41.109Z" fill="#0F2650"/>
<path id="Vector_17" d="M24.1394 44.4152H58.5334V45.8321H24.1394V44.4152Z" fill="#0F2650"/>
<path id="Vector_18" d="M24.1394 47.7214H58.5334V49.1384H24.1394V47.7214Z" fill="#0F2650"/>
</g>
</g>
</svg>
