<svg width="89" height="89" viewBox="0 0 89 89" fill="none" xmlns="http://www.w3.org/2000/svg">
<rect width="89" height="89" rx="12" fill="#B7ECEA"/>
<path d="M17.2114 27.7104H72.7947V60.3001H17.2114V27.7104Z" fill="white"/>
<path d="M17.2114 27.7104H72.7947V33.329H17.2114V27.7104Z" fill="#FFEB97"/>
<path d="M24.4872 30.5178C24.4872 30.6568 24.4169 30.7927 24.2852 30.9083C24.1535 31.0238 23.9663 31.1139 23.7473 31.1671C23.5283 31.2203 23.2872 31.2342 23.0547 31.2071C22.8222 31.18 22.6086 31.1131 22.441 31.0148C22.2733 30.9165 22.1592 30.7912 22.1129 30.6549C22.0667 30.5186 22.0904 30.3773 22.1811 30.2489C22.2719 30.1204 22.4255 30.0107 22.6226 29.9334C22.8197 29.8562 23.0515 29.815 23.2886 29.815C23.6065 29.815 23.9114 29.889 24.1362 30.0208C24.3609 30.1527 24.4872 30.3314 24.4872 30.5178Z" fill="#0F2650"/>
<path d="M29.2819 30.5178C29.2819 30.6568 29.2116 30.7927 29.0799 30.9083C28.9482 31.0238 28.761 31.1139 28.542 31.1671C28.3229 31.2203 28.0819 31.2342 27.8494 31.2071C27.6169 31.18 27.4033 31.1131 27.2357 31.0148C27.068 30.9165 26.9539 30.7912 26.9076 30.6549C26.8614 30.5186 26.8851 30.3773 26.9758 30.2489C27.0666 30.1204 27.2202 30.0107 27.4173 29.9334C27.6144 29.8562 27.8462 29.815 28.0832 29.815C28.4012 29.815 28.706 29.889 28.9308 30.0208C29.1556 30.1527 29.2819 30.3314 29.2819 30.5178Z" fill="#0F2650"/>
<path d="M34.0443 30.5178C34.0443 30.6568 33.974 30.7927 33.8423 30.9083C33.7106 31.0238 33.5234 31.1139 33.3043 31.1671C33.0853 31.2203 32.8443 31.2342 32.6118 31.2071C32.3793 31.18 32.1657 31.1131 31.9981 31.0148C31.8304 30.9165 31.7163 30.7912 31.67 30.6549C31.6238 30.5186 31.6475 30.3773 31.7382 30.2489C31.8289 30.1204 31.9826 30.0107 32.1797 29.9334C32.3768 29.8562 32.6086 29.815 32.8456 29.815C33.1635 29.815 33.4684 29.889 33.6932 30.0208C33.918 30.1527 34.0443 30.3314 34.0443 30.5178Z" fill="#0F2650"/>
<path d="M41.9774 52.8602H57.689V56.4044H41.9774V52.8602Z" fill="#FF8898"/>
<path d="M27.761 56.7521C29.7612 56.7521 31.3828 55.8014 31.3828 54.6286C31.3828 53.4558 29.7612 52.5051 27.761 52.5051C25.7607 52.5051 24.1392 53.4558 24.1392 54.6286C24.1392 55.8014 25.7607 56.7521 27.761 56.7521Z" fill="#01CFC9"/>
<path d="M64.6554 39.9301H67.0721V49.3764H64.6554V39.9301Z" fill="#B7ECEA"/>
<path d="M65.8605 42.2917C65.5409 42.2917 65.2344 42.2172 65.0084 42.0847C64.7824 41.9522 64.6554 41.7725 64.6554 41.5851V38.5131C64.6777 38.3342 64.8147 38.1668 65.0388 38.0446C65.263 37.9225 65.5577 37.8546 65.8637 37.8546C66.1698 37.8546 66.4645 37.9225 66.6886 38.0446C66.9128 38.1668 67.0498 38.3342 67.0721 38.5131V41.5813C67.0729 41.6747 67.0422 41.7673 66.9816 41.8537C66.921 41.9401 66.8318 42.0187 66.7191 42.0847C66.6064 42.1508 66.4725 42.2031 66.3252 42.2386C66.1778 42.2741 66.0199 42.2922 65.8605 42.2917Z" fill="#0F2650"/>
<path d="M57.6889 57.111H41.9774C41.8191 57.111 41.6624 57.0927 41.5162 57.0572C41.37 57.0217 41.2372 56.9696 41.1252 56.904C41.0133 56.8384 40.9246 56.7605 40.864 56.6748C40.8034 56.5891 40.7723 56.4972 40.7723 56.4044V52.8602C40.7723 52.767 40.8037 52.6749 40.8646 52.5889C40.9256 52.5029 41.0149 52.4248 41.1275 52.3592C41.2401 52.2935 41.3737 52.2416 41.5207 52.2063C41.6676 52.171 41.825 52.1531 41.9838 52.1536H57.6889C57.8483 52.1531 58.0062 52.1711 58.1536 52.2066C58.301 52.2421 58.4349 52.2945 58.5475 52.3605C58.6602 52.4266 58.7494 52.5051 58.81 52.5915C58.8706 52.6779 58.9013 52.7705 58.9005 52.8639V56.4082C58.8996 56.501 58.8676 56.5928 58.8063 56.6783C58.745 56.7638 58.6555 56.8414 58.543 56.9067C58.4305 56.972 58.2971 57.0236 58.1506 57.0587C58.0041 57.0937 57.8472 57.1115 57.6889 57.111ZM43.1889 55.694H56.4774V53.5667H43.1889V55.694Z" fill="#0F2650"/>
<path d="M27.5999 56.4725L24.8288 54.8477C24.5981 54.7139 24.4674 54.5319 24.4656 54.3416C24.4638 54.1513 24.591 53.9685 24.8191 53.8332C25.0473 53.6979 25.3578 53.6213 25.6823 53.6202C26.0068 53.6192 26.3187 53.6937 26.5495 53.8275L27.5999 54.4585L30.5901 52.6939C30.8209 52.5607 31.1325 52.4866 31.4563 52.488C31.7802 52.4894 32.0899 52.5662 32.3172 52.7015C32.5446 52.8368 32.6709 53.0195 32.6685 53.2094C32.6661 53.3993 32.5351 53.5809 32.3043 53.7141L27.5999 56.4725Z" fill="#0F2650"/>
<path d="M72.7949 61.0067H17.2116C17.0528 61.0072 16.8954 60.9893 16.7484 60.954C16.6015 60.9187 16.4678 60.8667 16.3553 60.8011C16.2427 60.7354 16.1533 60.6573 16.0924 60.5714C16.0314 60.4854 16 60.3932 16 60.3001V27.7104C15.9992 27.6169 16.0299 27.5243 16.0905 27.4379C16.1511 27.3515 16.2403 27.273 16.353 27.207C16.4656 27.1409 16.5995 27.0886 16.7469 27.0531C16.8943 27.0175 17.0522 26.9995 17.2116 27H72.7949C72.9537 27 73.1109 27.0184 73.2575 27.0542C73.4042 27.0899 73.5373 27.1423 73.6493 27.2083C73.7613 27.2743 73.8499 27.3527 73.9101 27.4388C73.9703 27.525 74.0008 27.6173 74 27.7104V60.3001C74 60.4875 73.873 60.6672 73.647 60.7997C73.421 60.9322 73.1145 61.0067 72.7949 61.0067ZM18.4167 59.5897H71.5833V28.417H18.4167V59.5897Z" fill="#0F2650"/>
<path d="M71.8346 34.0356H18.1653C17.8601 34.0225 17.5746 33.9422 17.3662 33.8108C17.1579 33.6793 17.0421 33.5066 17.0421 33.3271C17.0421 33.1477 17.1579 32.9749 17.3662 32.8435C17.5746 32.712 17.8601 32.6317 18.1653 32.6186H71.8346C72.0007 32.6115 72.1675 32.6246 72.3246 32.6569C72.4818 32.6893 72.6258 32.7404 72.7478 32.8068C72.8698 32.8733 72.9671 32.9538 73.0336 33.0434C73.1001 33.1329 73.1345 33.2295 73.1345 33.3271C73.1345 33.4248 73.1001 33.5214 73.0336 33.6109C72.9671 33.7004 72.8698 33.7809 72.7478 33.8474C72.6258 33.9139 72.4818 33.9649 72.3246 33.9973C72.1675 34.0297 72.0007 34.0427 71.8346 34.0356Z" fill="#0F2650"/>
<path d="M38.9358 29.7243H69.2569V31.1412H38.9358V29.7243Z" fill="#0F2650"/>
<path d="M24.1393 37.8028H58.5333V39.2197H24.1393V37.8028Z" fill="#0F2650"/>
<path d="M24.1393 41.109H58.5333V42.526H24.1393V41.109Z" fill="#0F2650"/>
<path d="M24.1393 44.4152H58.5333V45.8321H24.1393V44.4152Z" fill="#0F2650"/>
<path d="M24.1393 47.7214H58.5333V49.1383H24.1393V47.7214Z" fill="#0F2650"/>
</svg>
