<svg width="58" height="35" viewBox="0 0 58 35" fill="none" xmlns="http://www.w3.org/2000/svg">
<path d="M1.21143 0.710388H56.7947V33.3001H1.21143V0.710388Z" fill="white"/>
<path d="M1.21143 0.710388H56.7947V6.32904H1.21143V0.710388Z" fill="#FFEB97"/>
<path d="M8.48724 3.51781C8.48724 3.65681 8.41694 3.79269 8.28523 3.90826C8.15351 4.02384 7.96631 4.11392 7.74728 4.16711C7.52825 4.22031 7.28724 4.23422 7.05472 4.20711C6.8222 4.17999 6.60862 4.11305 6.44099 4.01476C6.27335 3.91648 6.15919 3.79125 6.11294 3.65492C6.06669 3.51859 6.09042 3.37728 6.18115 3.24886C6.27187 3.12043 6.42551 3.01067 6.62263 2.93345C6.81975 2.85622 7.0515 2.815 7.28857 2.815C7.60648 2.815 7.91136 2.88905 8.13616 3.02085C8.36095 3.15265 8.48724 3.33141 8.48724 3.51781" fill="#0F2650"/>
<path d="M13.2819 3.51781C13.2819 3.65681 13.2116 3.79269 13.0799 3.90826C12.9482 4.02384 12.761 4.11392 12.542 4.16711C12.3229 4.22031 12.0819 4.23422 11.8494 4.20711C11.6169 4.17999 11.4033 4.11305 11.2357 4.01476C11.068 3.91648 10.9539 3.79125 10.9076 3.65492C10.8614 3.51859 10.8851 3.37728 10.9758 3.24886C11.0666 3.12043 11.2202 3.01067 11.4173 2.93345C11.6144 2.85622 11.8462 2.815 12.0832 2.815C12.4012 2.815 12.706 2.88905 12.9308 3.02085C13.1556 3.15265 13.2819 3.33141 13.2819 3.51781Z" fill="#0F2650"/>
<path d="M18.0443 3.51781C18.0443 3.65681 17.974 3.79269 17.8423 3.90826C17.7106 4.02384 17.5234 4.11392 17.3043 4.16711C17.0853 4.22031 16.8443 4.23422 16.6118 4.20711C16.3793 4.17999 16.1657 4.11305 15.9981 4.01476C15.8304 3.91648 15.7163 3.79125 15.67 3.65492C15.6238 3.51859 15.6475 3.37728 15.7382 3.24886C15.8289 3.12043 15.9826 3.01067 16.1797 2.93345C16.3768 2.85622 16.6086 2.815 16.8456 2.815C17.1635 2.815 17.4684 2.88905 17.6932 3.02085C17.918 3.15265 18.0443 3.33141 18.0443 3.51781Z" fill="#0F2650"/>
<path d="M25.9774 25.8602H41.689V29.4044H25.9774V25.8602Z" fill="#FF8898"/>
<path d="M11.761 29.7521C13.7612 29.7521 15.3828 28.8014 15.3828 27.6286C15.3828 26.4558 13.7612 25.5051 11.761 25.5051C9.76075 25.5051 8.13922 26.4558 8.13922 27.6286C8.13922 28.8014 9.76075 29.7521 11.761 29.7521Z" fill="#01CFC9"/>
<path d="M48.6554 12.9301H51.0721V22.3764H48.6554V12.9301Z" fill="#B7ECEA"/>
<path d="M49.8605 15.2917C49.5409 15.2917 49.2344 15.2172 49.0084 15.0847C48.7824 14.9522 48.6554 14.7725 48.6554 14.5851V11.5131C48.6777 11.3342 48.8147 11.1668 49.0388 11.0446C49.263 10.9225 49.5577 10.8546 49.8637 10.8546C50.1698 10.8546 50.4645 10.9225 50.6886 11.0446C50.9128 11.1668 51.0498 11.3342 51.0721 11.5131V14.5813C51.0729 14.6747 51.0422 14.7673 50.9816 14.8537C50.921 14.9401 50.8318 15.0187 50.7191 15.0847C50.6064 15.1508 50.4725 15.2031 50.3252 15.2386C50.1778 15.2741 50.0199 15.2922 49.8605 15.2917Z" fill="#0F2650"/>
<path d="M41.6889 30.111H25.9774C25.8191 30.111 25.6624 30.0927 25.5162 30.0572C25.37 30.0217 25.2372 29.9696 25.1252 29.904C25.0133 29.8384 24.9246 29.7605 24.864 29.6748C24.8034 29.5891 24.7723 29.4972 24.7723 29.4044V25.8602C24.7723 25.767 24.8037 25.6749 24.8646 25.5889C24.9256 25.5029 25.0149 25.4248 25.1275 25.3592C25.2401 25.2935 25.3737 25.2416 25.5207 25.2063C25.6676 25.171 25.825 25.1531 25.9838 25.1536H41.6889C41.8483 25.1531 42.0062 25.1711 42.1536 25.2066C42.301 25.2421 42.4349 25.2945 42.5475 25.3605C42.6602 25.4266 42.7494 25.5051 42.81 25.5915C42.8706 25.6779 42.9013 25.7705 42.9005 25.8639V29.4082C42.8996 29.501 42.8676 29.5928 42.8063 29.6783C42.745 29.7638 42.6555 29.8414 42.543 29.9067C42.4305 29.972 42.2971 30.0236 42.1506 30.0587C42.0041 30.0937 41.8472 30.1115 41.6889 30.111V30.111ZM27.1889 28.694H40.4774V26.5667H27.1889V28.694Z" fill="#0F2650"/>
<path d="M11.5999 29.4725L8.82879 27.8477C8.59805 27.7139 8.46741 27.5319 8.4656 27.3416C8.46378 27.1513 8.59095 26.9685 8.81913 26.8332C9.0473 26.6979 9.35779 26.6213 9.68229 26.6202C10.0068 26.6192 10.3187 26.6937 10.5495 26.8275L11.5999 27.4585L14.5901 25.6939C14.8209 25.5607 15.1325 25.4866 15.4563 25.488C15.7802 25.4894 16.0899 25.5662 16.3172 25.7015C16.5446 25.8368 16.6709 26.0195 16.6685 26.2094C16.6661 26.3993 16.5351 26.5809 16.3043 26.7141L11.5999 29.4725Z" fill="#0F2650"/>
<path d="M56.7949 34.0067H1.21157C1.05277 34.0072 0.895373 33.9893 0.748417 33.954C0.601462 33.9187 0.46785 33.8667 0.355261 33.8011C0.242673 33.7354 0.153329 33.6573 0.0923635 33.5714C0.0313984 33.4854 1.50549e-05 33.3932 1.73255e-05 33.3001V0.710372C-0.000837077 0.616946 0.0299174 0.524348 0.0905012 0.437936C0.151085 0.351525 0.240295 0.273016 0.352969 0.206953C0.465642 0.14089 0.599543 0.0885844 0.746921 0.0530628C0.8943 0.0175412 1.05223 -0.000490797 1.21157 1.01583e-05H56.7949C56.9537 8.82703e-06 57.1109 0.0184096 57.2575 0.0541547C57.4042 0.0898999 57.5373 0.142285 57.6493 0.208298C57.7613 0.274311 57.8499 0.35265 57.9101 0.438814C57.9703 0.524977 58.0008 0.617264 58 0.710372V33.3001C58 33.4875 57.873 33.6672 57.647 33.7997C57.421 33.9322 57.1145 34.0067 56.7949 34.0067ZM2.41668 32.5897H55.5833V1.41695H2.41668V32.5897Z" fill="#0F2650"/>
<path d="M55.8346 7.03559H2.16531C1.86008 7.02252 1.57461 6.9422 1.36624 6.81077C1.15787 6.67935 1.04205 6.50656 1.04205 6.32712C1.04205 6.14768 1.15787 5.9749 1.36624 5.84347C1.57461 5.71205 1.86008 5.63173 2.16531 5.61865H55.8346C56.0007 5.61153 56.1675 5.62457 56.3246 5.65695C56.4818 5.68933 56.6258 5.74035 56.7478 5.80684C56.8698 5.87332 56.9671 5.95384 57.0336 6.04336C57.1001 6.13287 57.1345 6.22947 57.1345 6.32712C57.1345 6.42477 57.1001 6.52137 57.0336 6.61089C56.9671 6.70041 56.8698 6.78092 56.7478 6.84741C56.6258 6.91389 56.4818 6.96491 56.3246 6.99729C56.1675 7.02967 56.0007 7.04271 55.8346 7.03559V7.03559Z" fill="#0F2650"/>
<path d="M22.9358 2.7243H53.2569V4.14125H22.9358V2.7243Z" fill="#0F2650"/>
<path d="M8.13934 10.8028H42.5333V12.2197H8.13934V10.8028Z" fill="#0F2650"/>
<path d="M8.13934 14.109H42.5333V15.526H8.13934V14.109Z" fill="#0F2650"/>
<path d="M8.13934 17.4152H42.5333V18.8321H8.13934V17.4152Z" fill="#0F2650"/>
<path d="M8.13934 20.7214H42.5333V22.1383H8.13934V20.7214Z" fill="#0F2650"/>
</svg>
