<svg width="22" height="29" viewBox="0 0 22 29" fill="none" xmlns="http://www.w3.org/2000/svg">
<path d="M21 12.0934C21 20.1552 11 27.0653 11 27.0653C11 27.0653 1 20.1552 1 12.0934C1 9.34441 2.05357 6.708 3.92893 4.76415C5.8043 2.82031 8.34784 1.72827 11 1.72827C13.6522 1.72827 16.1957 2.82031 18.0711 4.76415C19.9464 6.708 21 9.34441 21 12.0934Z" fill="#01CFC9" stroke="#0F2650" stroke-width="2" stroke-linecap="round" stroke-linejoin="round"/>
<path d="M11 15.8045C12.6569 15.8045 14 14.334 14 12.52C14 10.7061 12.6569 9.2356 11 9.2356C9.34315 9.2356 8 10.7061 8 12.52C8 14.334 9.34315 15.8045 11 15.8045Z" fill="#0F2650" stroke="#0F2650" stroke-width="2" stroke-linecap="round" stroke-linejoin="round"/>
</svg>
