<svg width="50" height="50" viewBox="0 0 50 50" fill="none" xmlns="http://www.w3.org/2000/svg">
<rect width="50" height="50" rx="8" fill="#0F2650"/>
<path d="M37.2805 22.3067C37.2805 31.1007 25.1403 38.6385 25.1403 38.6385C25.1403 38.6385 13 31.1007 13 22.3067C13 19.3079 14.2791 16.4321 16.5558 14.3116C18.8325 12.1912 21.9205 11 25.1403 11C28.3601 11 31.448 12.1912 33.7247 14.3116C36.0015 16.4321 37.2805 19.3079 37.2805 22.3067Z" fill="#01CFC9" stroke="#0F2650" stroke-width="2" stroke-linecap="round" stroke-linejoin="round"/>
<path d="M24.5332 25.971C26.8799 25.971 28.7823 24.4242 28.7823 22.5162C28.7823 20.6081 26.8799 19.0613 24.5332 19.0613C22.1865 19.0613 20.2841 20.6081 20.2841 22.5162C20.2841 24.4242 22.1865 25.971 24.5332 25.971Z" fill="#0F2650" stroke="#0F2650" stroke-width="2" stroke-linecap="round" stroke-linejoin="round"/>
</svg>
