<svg width="32" height="30" viewBox="0 0 32 30" fill="none" xmlns="http://www.w3.org/2000/svg">
<path d="M27.3741 19.8489V22.8346C27.3754 23.1118 27.3112 23.3861 27.1857 23.6401C27.0602 23.8941 26.8761 24.122 26.6452 24.3094C26.4143 24.4968 26.1418 24.6394 25.845 24.7282C25.5482 24.817 25.2337 24.85 24.9216 24.8251C21.4598 24.4923 18.1345 23.4458 15.2129 21.7697C12.4947 20.2417 10.1901 18.203 8.46288 15.7983C6.56161 13.202 5.3784 10.2459 5.00913 7.1697C4.98102 6.89448 5.01799 6.61711 5.11769 6.35523C5.2174 6.09334 5.37765 5.8527 5.58824 5.64861C5.79884 5.44452 6.05516 5.28146 6.3409 5.1698C6.62663 5.05815 6.93551 5.00036 7.24788 5.0001H10.6229C11.1689 4.99534 11.6981 5.16638 12.1121 5.48132C12.5261 5.79627 12.7965 6.23363 12.8729 6.71189C13.0153 7.66738 13.2795 8.60554 13.6604 9.50849C13.8117 9.8647 13.8445 10.2518 13.7548 10.624C13.6651 10.9962 13.4566 11.3378 13.1541 11.6084L11.7254 12.8724C13.3269 15.364 15.6589 17.427 18.4754 18.8437L19.9041 17.5798C20.21 17.3122 20.5962 17.1278 21.0169 17.0484C21.4376 16.9691 21.8752 16.998 22.2779 17.1319C23.2986 17.4689 24.3591 17.7026 25.4391 17.8286C25.9856 17.8968 26.4847 18.1403 26.8415 18.5128C27.1983 18.8853 27.3878 19.3608 27.3741 19.8489Z" fill="#01CFC9" stroke="#01CFC9" stroke-width="2" stroke-linecap="round" stroke-linejoin="round"/>
</svg>
